# xmcd
#
# Track frame offsets: 
#        150
#        2636
#        14014
#        27488
#        42824
#        55026
#        74534
#        84782
#        100672
#        116784
#        130824
#        141084
#        155490
#
# Disc length: 2280 seconds
#
# Revision: 0
# Processed by: cddbd v1.5.2PL0 Copyright (c) Steve Scherf et al.
# Submitted via: ExactAudioCopy v0.99pb3
#
DISCID=a508e60d
DTITLE=Joe Singleton - Joe Sings Joe Live
DYEAR=2009
DGENRE=Bluegrass
TTITLE0=Introduction
TTITLE1=Not a Word from Home
TTITLE2=Why Don't You Tell Me So
TTITLE3=Just Wondering Why
TTITLE4=When the Cactus Is In Bloom
TTITLE5=When the Golden Leaves Begin To Fall
TTITLE6=Wrong Road Again
TTITLE7='Neath a Cold Gray Tomb of Stone
TTITLE8=Long Time Gone
TTITLE9=Diamond Joe
TTITLE10=Lonesome Road Blues
TTITLE11=Cold Wind
TTITLE12=T for Texas
EXTD=
EXTT0=
EXTT1=
EXTT2=
EXTT3=
EXTT4=
EXTT5=
EXTT6=
EXTT7=
EXTT8=
EXTT9=
EXTT10=
EXTT11=
EXTT12=
PLAYORDER=
